<svg xmlns="http://www.w3.org/2000/svg" viewBox="0 0 109.48 82.98"><defs><style>.cls-1{fill:#f8981d;}.cls-2{opacity:0.8;}.cls-3{fill:#567cbc;}</style></defs><g id="Layer_2" data-name="Layer 2"><g id="Layer_1-2" data-name="Layer 1"><path class="cls-1" d="M109.48,0l-10,56.26a5.73,5.73,0,0,1-1.51,2.89,5.28,5.28,0,0,1-2.85,1.55,5.58,5.58,0,0,1-3.24-.38,5.21,5.21,0,0,1-2.41-2.09L69.5,25.49l-20,32.74a5,5,0,0,1-1.95,1.88,5.45,5.45,0,0,1-2.66.67,5.35,5.35,0,0,1-5.32-4.52L29.48,0H40.54l7.2,39.64L64.9,12.27a4.92,4.92,0,0,1,1.95-1.89,5.55,5.55,0,0,1,2.65-.67,5.45,5.45,0,0,1,2.64.67,5.67,5.67,0,0,1,2,1.89L91.23,39.64,98.43,0Z"/><g class="cls-2"><path class="cls-3" d="M106.66,74.66a90.92,90.92,0,0,0-12.21,4c-6.29,2.28-12.69,2.61-20,3.49-1.82.18-3.58.36-5.34.49-.88.08-1.76.14-2.65.19s-1.79.11-2.61.13c-6.87-.53-14.5-1-22.49-2-.84-.22-3.29-1-3.29.34-1-.28-1.91-.58-2.86-.9l-2.64-.93c-1.76-.62-3.56-1.28-5.36-2a109.25,109.25,0,0,1-10.88-4.75,15.65,15.65,0,0,1-4-3.47c-.59-.68-1.13-1.41-1.7-2.08A23.93,23.93,0,0,0,9,65.13c-.46-.54-.89-1.1-1.31-1.68A16.58,16.58,0,0,1,6.6,61.63c-.15-.31-.32-.63-.46-.93l-.36-.9c-.25-.59-.44-1.2-.65-1.8-.82-2.41-1.44-4.84-2.27-7.21-.39-.6-1.51-1.88-1.55-2.5-.2-3.6-.89-6.91-1.19-10.58C0,36.8,0,35.85,0,34.9c0-.48.05-1,.07-1.46A10.93,10.93,0,0,1,.23,32l.26-1.51C.6,30,.74,29.5.86,29a21.09,21.09,0,0,1,1-2.78,20.35,20.35,0,0,1,5-6.81c-.18-.62.44-1,1-1.72a22.51,22.51,0,0,1,7.78-3.39,20.2,20.2,0,0,1,5-.57,7.68,7.68,0,0,1,2.78.39c.17.11-1.4.18-3.54.72A26.46,26.46,0,0,0,12.57,18a24.51,24.51,0,0,0-5.88,5.12,14.68,14.68,0,0,0-1.46,2.06c-.31.51-.41.82-.31.83A23.13,23.13,0,0,0,6.61,24a29.1,29.1,0,0,1,3.76-3.53,25.12,25.12,0,0,1,4.51-2.77,16.82,16.82,0,0,1,2.77-1.07,24.09,24.09,0,0,0-7.17,5.22,22.44,22.44,0,0,0-3.92,5.68A17.7,17.7,0,0,0,4.7,36.32a17.09,17.09,0,0,0,.65,4c.2.67.32.75.29.39a34,34,0,0,1-.18-6.41A20.56,20.56,0,0,1,6.8,29.21a23.49,23.49,0,0,1,2.78-4.94c.85-.76,1.75-1.82,3-3a15.72,15.72,0,0,1,5.07-3.14,15.18,15.18,0,0,0-4,3.62c-1.19,1.47-2,2.88-2.35,3.33a12,12,0,0,0-1,1.47,9.12,9.12,0,0,0-.58,1.19,16.06,16.06,0,0,0-.65,1.85c-.2.55-.36,1.14-.67,1.87s-.67,1.69-1.07,2.94a15.29,15.29,0,0,0,.58,8.38,51.41,51.41,0,0,0,3.26,7.62,22.53,22.53,0,0,1-3.34-4,10.61,10.61,0,0,1-2-5.38A9.38,9.38,0,0,0,8.2,48.29a23,23,0,0,1,4.21,6.64,8.47,8.47,0,0,0,1.31,1.88c.25.67.43,1.34.77,2.14a16.45,16.45,0,0,0,5.57,5.14,69.3,69.3,0,0,0,7.11,3.47c-.48-.13-.51-.88-.93-1.14a56.91,56.91,0,0,0-5.55-3.37A13,13,0,0,1,16,58.94c-.16-.41-.67-.67-1.11-1a4.26,4.26,0,0,1-1.19-1.11,19,19,0,0,1-1.61-5.93c1.1,1.67,2.12,3.65,3.17,5.43a17.12,17.12,0,0,0,3.36,4.21,4.69,4.69,0,0,0,2.35.57,21.94,21.94,0,0,1-3.16-3.32A49.69,49.69,0,0,1,12,49.19c-1.75-3.29-2.67-6.72-1.88-9l-.22-.51a.5.5,0,0,0,.13-.26,3.94,3.94,0,0,1,.63-2.54A18.85,18.85,0,0,0,10.37,39c1.09,2.9,2,6.1,3.23,9.53s3,7.28,4.78,9a3.66,3.66,0,0,1,.68.8,5.29,5.29,0,0,1,.31.53l.35.53a4.38,4.38,0,0,0,1.65,1.75C24.89,63,29,64.83,33.82,66.94c1.07.45,2.19.88,3.35,1.31s2.12.8,3.22,1.17c2.16.71,4.4,1.33,6.7,1.84a125.11,125.11,0,0,0,14.28,2.21c2.46.24,4.85.5,7.29.57s4.89.08,7.36,0c5-.19,9.93-.7,14.89-1.27l1.27-.48-.68-.19,1.33,0a24.82,24.82,0,0,1,7.29-1.53c1.1.12-1.64.61-2.21,1.33L99,71.65s0,.31,0,.62c.36-.27.72,0,1.07.1C95,74.15,89.76,76,84.3,77.51c.83.59,2.41,0,3.2-.12a24.41,24.41,0,0,1,5.14-1.71c4.39-1.63,9.38-1.89,13.66-3a23.54,23.54,0,0,1,2.52,0C109.91,72.85,108.27,74.38,106.66,74.66ZM37.93,71.93l4,2.14,1.54.39a6.38,6.38,0,0,0,2.07.19c2.77.74,5.6,1.37,8.47,1.86a48,48,0,0,0-9.23-3c4.49.56,8.73,1.39,13,2.25,2.13.43,4.27.87,6.42,1.27a53.78,53.78,0,0,0,6.67.81,57.39,57.39,0,0,0,8.17-1,41.9,41.9,0,0,0,5.51-1.64A84.32,84.32,0,0,1,66.8,76a139.35,139.35,0,0,1-17.18-2.53c-2.78-.61-5.5-1.32-8.13-2.17-1.31-.41-2.6-.87-3.86-1.35l-4-1.53c-5.17-2-9.77-4.3-13-7.23a18.17,18.17,0,0,0,3.2,3.25A29.84,29.84,0,0,0,28,67.23,109.59,109.59,0,0,0,37.93,71.93Zm-2.84.22c-2.92-.84-5.73-1.64-8.43-2.57a47.22,47.22,0,0,1-5.21-2.52,40.7,40.7,0,0,1-4.54-3.12c-2.75-2.22-4.77-4.65-6.79-6.56a27.63,27.63,0,0,0,3.12,4.17,24.21,24.21,0,0,0,3.9,3.38,37.94,37.94,0,0,0,9.52,4.65c-1.6-.66-2.48-1.09-2.8-1.24s-.09,0,.59.33,1.86.86,3.44,1.45,3.59,1.2,5.93,1.8A5.5,5.5,0,0,1,35.09,72.15Z"/><path class="cls-3" d="M79,73c3.5.15,7.06,0,10.62-.09a29.39,29.39,0,0,0-4.5-1.18c-4.35-.37-8.79.63-13.07.38-1.53-.11-3.05-.21-4.55-.37-.75,0-1.5-.15-2.24-.24L63,71.27c-3.1-.36-6.18-.72-9.2-1.11s-6-.86-8.91-1.43c-1.45-.28-2.87-.61-4.28-1s-2.72-.73-4.34-1.18a9.56,9.56,0,0,0-2.87-.7c.88.35,1.8.69,2.74,1l2.74,1c1.73.58,3.51,1.09,5.32,1.54a107.72,107.72,0,0,0,11.23,2q2.88.38,5.82.69l3,.31,2.87.27C70.92,73,74.9,73.07,79,73Z"/><path class="cls-3" d="M20.29,57.21a11.79,11.79,0,0,1-1.55-1.53l-.62-.91a3.35,3.35,0,0,1-.32-.58l-.32-.65a8.89,8.89,0,0,0,.27,1.4c.1.37.23.76.37,1.15a9.5,9.5,0,0,0,1.27,2A20.66,20.66,0,0,0,24.75,62,32.86,32.86,0,0,1,20.29,57.21Z"/><path class="cls-3" d="M33.38,65.9c-.58-.22-1.11-.45-1.67-.68-2.52-1.07-4.86-2.1-7-3.22a31.85,31.85,0,0,0,7.18,4.69C32.1,66.06,32.66,65.89,33.38,65.9Z"/></g></g></g></svg>